<?xml version="1.0" standalone="no"?>
<!DOCTYPE svg PUBLIC "-//W3C//DTD SVG 20010904//EN"
 "http://www.w3.org/TR/2001/REC-SVG-20010904/DTD/svg10.dtd">
<svg version="1.0" xmlns="http://www.w3.org/2000/svg"
 width="300.000000pt" height="117.000000pt" viewBox="0 0 300.000000 117.000000"
 preserveAspectRatio="xMidYMid meet">

<g transform="translate(0.000000,117.000000) scale(0.100000,-0.100000)"
fill="#000000" stroke="none">
<path d="M700 1139 c0 -5 5 -7 10 -4 6 3 10 8 10 11 0 2 -4 4 -10 4 -5 0 -10
-5 -10 -11z"/>
<path d="M590 1080 c0 -5 5 -10 10 -10 6 0 10 5 10 10 0 6 -4 10 -10 10 -5 0
-10 -4 -10 -10z"/>
<path d="M396 1063 c-11 -11 -6 -23 9 -23 8 0 15 4 15 9 0 13 -16 22 -24 14z"/>
<path d="M900 1050 c0 -5 5 -10 11 -10 5 0 7 5 4 10 -3 6 -8 10 -11 10 -2 0
-4 -4 -4 -10z"/>
<path d="M775 1040 c-4 -6 -3 -16 3 -22 6 -6 12 -6 17 2 4 6 3 16 -3 22 -6 6
-12 6 -17 -2z"/>
<path d="M485 991 c-8 -15 3 -31 21 -31 9 0 14 7 12 17 -4 20 -24 28 -33 14z"/>
<path d="M642 973 c4 -21 33 -25 33 -3 0 8 -8 16 -18 18 -14 3 -18 -1 -15 -15z"/>
<path d="M226 963 c-11 -11 -6 -23 9 -23 8 0 15 4 15 9 0 13 -16 22 -24 14z"/>
<path d="M337 934 c-14 -14 -7 -35 11 -32 9 2 17 10 17 17 0 16 -18 25 -28 15z"/>
<path d="M794 925 c-9 -23 10 -40 25 -22 9 11 8 17 -4 27 -12 10 -16 9 -21 -5z"/>
<path d="M935 929 c-10 -15 3 -25 16 -12 7 7 7 13 1 17 -6 3 -14 1 -17 -5z"/>
<path d="M100 910 c0 -5 5 -10 11 -10 5 0 7 5 4 10 -3 6 -8 10 -11 10 -2 0 -4
-4 -4 -10z"/>
<path d="M540 905 c-18 -22 -1 -50 31 -50 20 0 24 5 24 30 0 23 -5 31 -21 33
-11 2 -27 -4 -34 -13z"/>
<path d="M1060 900 c0 -5 5 -10 11 -10 5 0 7 5 4 10 -3 6 -8 10 -11 10 -2 0
-4 -4 -4 -10z"/>
<path d="M422 888 c-26 -26 1 -65 38 -53 16 5 20 14 18 33 -3 30 -35 41 -56
20z"/>
<path d="M661 882 c-12 -23 4 -52 29 -52 25 0 41 30 29 53 -13 22 -46 22 -58
-1z"/>
<path d="M215 820 c-8 -14 3 -30 21 -30 8 0 14 9 14 20 0 21 -24 28 -35 10z"/>
<path d="M312 818 c-26 -26 1 -65 38 -53 16 5 20 14 18 33 -3 30 -35 41 -56
20z"/>
<path d="M772 818 c-26 -26 1 -65 38 -53 16 5 20 14 18 33 -3 30 -35 41 -56
20z"/>
<path d="M905 810 c-8 -14 3 -30 21 -30 8 0 14 9 14 20 0 21 -24 28 -35 10z"/>
<path d="M116 803 c-11 -11 -6 -23 9 -23 8 0 15 4 15 9 0 13 -16 22 -24 14z"/>
<path d="M2805 768 c-3 -8 -4 -72 -3 -143 2 -92 7 -130 16 -133 9 -3 12 13 12
57 0 71 21 101 69 101 45 0 71 -40 71 -106 0 -30 5 -54 10 -54 6 0 10 29 10
66 0 60 -3 68 -30 96 -31 31 -64 35 -112 13 -16 -6 -18 -1 -18 48 0 53 -14 84
-25 55z"/>
<path d="M1040 755 c0 -9 5 -15 11 -13 6 2 11 8 11 13 0 5 -5 11 -11 13 -6 2
-11 -4 -11 -13z"/>
<path d="M2227 753 c-4 -3 -7 -57 -7 -118 0 -96 3 -114 18 -128 23 -21 56 -22
72 -2 13 16 11 17 -30 19 -24 1 -25 5 -28 64 -3 61 -2 62 23 62 16 0 25 6 25
15 0 9 -9 15 -25 15 -21 0 -25 5 -25 28 0 31 -13 56 -23 45z"/>
<path d="M241 716 c-19 -23 -4 -56 25 -56 28 0 42 25 27 49 -14 22 -37 25 -52
7z"/>
<path d="M840 715 c-20 -25 -8 -50 25 -50 21 0 31 5 33 18 4 21 -14 47 -33 47
-7 0 -18 -7 -25 -15z"/>
<path d="M5 710 c-3 -5 -1 -10 4 -10 6 0 11 5 11 10 0 6 -2 10 -4 10 -3 0 -8
-4 -11 -10z"/>
<path d="M1145 680 c3 -5 8 -10 11 -10 2 0 4 5 4 10 0 6 -5 10 -11 10 -5 0 -7
-4 -4 -10z"/>
<path d="M160 660 c0 -15 5 -20 18 -18 9 2 17 10 17 18 0 8 -8 16 -17 18 -13
2 -18 -3 -18 -18z"/>
<path d="M1451 666 c-26 -15 -50 -51 -51 -79 0 -32 28 -74 59 -87 29 -12 57
-11 92 4 13 6 15 1 11 -24 -7 -50 -59 -75 -102 -48 -21 13 -36 6 -25 -12 14
-22 56 -31 91 -20 56 19 64 40 64 167 0 62 -4 113 -9 113 -5 0 -11 -5 -13 -11
-3 -9 -9 -9 -25 0 -28 14 -62 14 -92 -3z m91 -33 c22 -20 23 -70 1 -95 -36
-40 -113 -8 -113 47 0 54 71 85 112 48z"/>
<path d="M1679 665 c-32 -17 -54 -66 -45 -100 14 -55 75 -87 128 -67 27 10 28
9 28 -18 0 -48 -56 -75 -100 -48 -21 13 -36 6 -25 -12 14 -22 56 -31 91 -20
56 19 64 40 64 167 0 103 -7 132 -25 103 -4 -7 -12 -7 -25 0 -26 14 -60 12
-91 -5z m93 -32 c22 -20 23 -70 1 -95 -36 -40 -113 -8 -113 47 0 54 71 85 112
48z"/>
<path d="M1899 651 c-21 -22 -29 -39 -29 -66 0 -44 45 -95 84 -95 38 0 76 18
76 36 0 12 -5 14 -17 9 -66 -28 -113 -7 -113 50 0 57 47 78 113 50 12 -5 17
-3 17 9 0 18 -38 36 -76 36 -15 0 -38 -12 -55 -29z"/>
<path d="M2391 654 c-26 -21 -31 -33 -31 -69 0 -36 5 -48 31 -69 33 -28 64
-32 104 -14 29 13 36 45 8 33 -40 -17 -74 -17 -93 0 -11 10 -20 22 -20 26 0 5
35 9 78 11 75 3 77 3 74 28 -3 35 -55 80 -91 80 -17 0 -43 -11 -60 -26z m112
-26 l22 -23 -64 -3 c-35 -2 -66 -1 -69 2 -3 3 3 15 13 26 24 27 69 26 98 -2z"/>
<path d="M2632 670 c-29 -12 -57 -70 -48 -103 16 -67 96 -99 146 -59 28 23 20
43 -10 24 -29 -18 -67 -15 -90 8 -57 57 20 141 90 98 29 -18 39 1 11 23 -25
20 -62 24 -99 9z"/>
<path d="M962 653 c2 -10 10 -18 18 -18 8 0 16 8 18 18 2 12 -3 17 -18 17 -15
0 -20 -5 -18 -17z"/>
<path d="M67 614 c-8 -8 1 -24 14 -24 5 0 9 7 9 15 0 15 -12 20 -23 9z"/>
<path d="M227 599 c-39 -22 -4 -79 35 -58 10 5 18 18 18 29 0 25 -30 41 -53
29z"/>
<path d="M877 599 c-39 -22 -4 -79 35 -58 10 5 18 18 18 29 0 25 -30 41 -53
29z"/>
<path d="M1065 571 c-6 -11 9 -23 19 -14 9 9 7 23 -3 23 -6 0 -12 -4 -16 -9z"/>
<path d="M152 503 c4 -21 33 -25 33 -3 0 8 -8 16 -18 18 -14 3 -18 -1 -15 -15z"/>
<path d="M964 499 c-3 -6 -2 -15 4 -21 13 -13 32 -2 32 18 0 16 -26 19 -36 3z"/>
<path d="M241 466 c-26 -31 14 -71 45 -45 21 17 14 53 -12 57 -11 2 -26 -4
-33 -12z"/>
<path d="M834 465 c-14 -37 26 -69 53 -42 22 22 8 57 -23 57 -14 0 -27 -7 -30
-15z"/>
<path d="M106 423 c-11 -11 -6 -23 9 -23 8 0 15 4 15 9 0 13 -16 22 -24 14z"/>
<path d="M1027 384 c-8 -8 1 -24 14 -24 5 0 9 7 9 15 0 15 -12 20 -23 9z"/>
<path d="M322 371 c-21 -13 -11 -55 14 -59 30 -4 48 21 34 47 -11 22 -27 26
-48 12z"/>
<path d="M770 365 c-20 -25 -8 -50 25 -50 21 0 31 5 33 18 4 21 -14 47 -33 47
-7 0 -18 -7 -25 -15z"/>
<path d="M217 364 c-9 -9 4 -34 18 -34 14 0 27 25 18 34 -4 3 -12 6 -18 6 -6
0 -14 -3 -18 -6z"/>
<path d="M896 355 c-6 -17 16 -31 33 -21 13 9 2 36 -14 36 -7 0 -16 -7 -19
-15z"/>
<path d="M422 301 c-8 -4 -12 -19 -10 -32 4 -29 45 -34 61 -7 19 30 -19 60
-51 39z"/>
<path d="M670 295 c-19 -23 -8 -50 22 -53 19 -2 28 2 33 18 12 39 -29 66 -55
35z"/>
<path d="M85 270 c3 -5 8 -10 11 -10 2 0 4 5 4 10 0 6 -5 10 -11 10 -5 0 -7
-4 -4 -10z"/>
<path d="M540 265 c-18 -22 -1 -50 31 -50 20 0 24 5 24 30 0 23 -5 31 -21 33
-11 2 -27 -4 -34 -13z"/>
<path d="M200 245 c0 -8 5 -15 10 -15 6 0 10 7 10 15 0 8 -4 15 -10 15 -5 0
-10 -7 -10 -15z"/>
<path d="M325 250 c-8 -14 3 -30 21 -30 8 0 14 9 14 20 0 21 -24 28 -35 10z"/>
<path d="M783 244 c-8 -21 13 -42 28 -27 13 13 5 43 -11 43 -6 0 -13 -7 -17
-16z"/>
<path d="M1050 250 c0 -5 5 -10 10 -10 6 0 10 5 10 10 0 6 -4 10 -10 10 -5 0
-10 -4 -10 -10z"/>
<path d="M906 233 c-11 -11 -6 -23 9 -23 8 0 15 4 15 9 0 13 -16 22 -24 14z"/>
<path d="M644 185 c-9 -23 10 -40 25 -22 9 11 8 17 -4 27 -12 10 -16 9 -21 -5z"/>
<path d="M475 180 c-8 -14 3 -30 21 -30 8 0 14 9 14 20 0 21 -24 28 -35 10z"/>
<path d="M357 134 c-8 -8 1 -24 14 -24 5 0 9 7 9 15 0 15 -12 20 -23 9z"/>
<path d="M740 120 c0 -5 5 -10 10 -10 6 0 10 5 10 10 0 6 -4 10 -10 10 -5 0
-10 -4 -10 -10z"/>
<path d="M240 99 c0 -5 5 -7 10 -4 6 3 10 8 10 11 0 2 -4 4 -10 4 -5 0 -10 -5
-10 -11z"/>
<path d="M880 100 c0 -5 5 -10 10 -10 6 0 10 5 10 10 0 6 -4 10 -10 10 -5 0
-10 -4 -10 -10z"/>
<path d="M552 89 c2 -6 8 -10 13 -10 5 0 11 4 13 10 2 6 -4 11 -13 11 -9 0
-15 -5 -13 -11z"/>
<path d="M450 20 c0 -5 5 -10 10 -10 6 0 10 5 10 10 0 6 -4 10 -10 10 -5 0
-10 -4 -10 -10z"/>
<path d="M670 20 c0 -5 5 -10 10 -10 6 0 10 5 10 10 0 6 -4 10 -10 10 -5 0
-10 -4 -10 -10z"/>
</g>
</svg>
